<svg id="Capa_1" enable-background="new 0 0 512 512" height="512" viewBox="0 0 512 512" width="512" xmlns="http://www.w3.org/2000/svg"><g><path d="m317 .25c-90.982 0-165 74.019-165 165v30c0 8.284 6.716 15 15 15h60c8.283 0 15-6.716 15-15v-30c0-41.354 33.645-75 75-75s75 33.646 75 75v30c0 8.284 6.716 15 15 15h60c8.283 0 15-6.716 15-15v-30c0-90.981-74.019-165-165-165z" fill="#ff80a9"/><path d="m317 .25v90c41.355 0 75 33.646 75 75v30c0 8.284 6.716 15 15 15h60c8.283 0 15-6.716 15-15v-30c0-90.981-74.019-165-165-165z" fill="#ff3c7d"/><path d="m317 60.25c-57.898 0-105 47.104-105 105v30c0 8.284 6.716 15 15 15h60c8.283 0 15-6.716 15-15v-30c0-8.27 6.728-15 15-15s15 6.73 15 15v30c0 8.284 6.716 15 15 15h60c8.283 0 15-6.716 15-15v-30c0-57.896-47.103-105-105-105z" fill="#ffed6a"/><path d="m317 60.25v90c8.272 0 15 6.73 15 15v30c0 8.284 6.716 15 15 15h60c8.283 0 15-6.716 15-15v-30c0-57.896-47.103-105-105-105z" fill="#ffb454"/><path d="m317 120.25c-24.814 0-45 20.188-45 45v30c0 8.284 6.716 15 15 15h60c8.283 0 15-6.716 15-15v-30c0-24.812-20.186-45-45-45z" fill="#9ee2f8"/><path d="m317 120.25v90h30c8.283 0 15-6.716 15-15v-30c0-24.812-20.186-45-45-45z" fill="#8cbcff"/><path d="m497 180.25h-375c-8.284 0-15 6.716-15 15v281.5c0 8.284 6.716 15 15 15h375c8.283 0 15-6.716 15-15v-281.5c0-8.284-6.717-15-15-15z" fill="#453d81"/><path d="m497 180.25h-180v311.5h180c8.283 0 15-6.716 15-15v-281.5c0-8.284-6.717-15-15-15z" fill="#2e2654"/><path d="m61 180.25c-8.284 0-15-6.716-15-15v-26c0-8.284 6.716-15 15-15 8.283 0 15 6.716 15 15v26c0 8.284-6.717 15-15 15z" fill="#453d81"/><path d="m107 150.25h-92c-8.284 0-15 6.716-15 15v311.5c0 8.284 6.716 15 15 15h107v-326.5c0-8.284-6.717-15-15-15z" fill="#5e54ac"/><circle cx="317" cy="376.75" fill="#9ee2f8" r="135"/><path d="m317 241.75v270c74.44 0 135-60.56 135-135s-60.56-135-135-135z" fill="#8cbcff"/><circle cx="317" cy="376.75" fill="#ebf3ff" r="58.5"/><path d="m317 318.25v117c32.257 0 58.5-26.243 58.5-58.5s-26.243-58.5-58.5-58.5z" fill="#d7e8ff"/><circle cx="167" cy="255.25" fill="#ebf3ff" r="15"/></g></svg>